<svg xmlns="http://www.w3.org/2000/svg" width="15" height="11" viewBox="0 0 15 11">
  <g id="Polygon_1" data-name="Polygon 1" transform="translate(15 11) rotate(180)" fill="#444">
    <path d="M 13.10786056518555 10.50000095367432 L 1.892140984535217 10.50000095367432 C 1.620211005210876 10.50000095367432 1.492401003837585 10.31372165679932 1.450080990791321 10.2336311340332 C 1.407750964164734 10.15354156494141 1.325840950012207 9.943000793457031 1.479020953178406 9.718331336975098 L 7.086881160736084 1.493471145629883 C 7.181490898132324 1.354711174964905 7.332060813903809 1.27514123916626 7.500000953674316 1.27514123916626 C 7.667941093444824 1.27514123916626 7.818511009216309 1.354711174964905 7.913120746612549 1.493471145629883 L 13.52098083496094 9.718331336975098 C 13.67416095733643 9.943000793457031 13.59225082397461 10.15354156494141 13.5499210357666 10.2336311340332 C 13.50760078430176 10.31372165679932 13.37979125976562 10.50000095367432 13.10786056518555 10.50000095367432 Z" stroke="none"/>
    <path d="M 7.499887943267822 1.775306701660156 L 7.500000953674316 1.775140762329102 L 1.892143249511719 9.999997138977051 C 1.892144203186035 9.999999046325684 1.892145156860352 10 1.892141342163086 10.00000095367432 L 13.10785675048828 10.00000095367432 C 13.10785675048828 10 13.1078577041626 9.999999046325684 13.10786056518555 10.00000095367432 L 7.499887943267822 1.775306701660156 M 7.500000953674316 0.7751359939575195 C 7.813873291015625 0.7751359939575195 8.12774658203125 0.9206914901733398 8.326231002807617 1.211801528930664 L 13.93409061431885 9.436660766601562 C 14.38669109344482 10.10047149658203 13.91128063201904 11.00000095367432 13.10786056518555 11.00000095367432 L 1.892141342163086 11.00000095367432 C 1.08872127532959 11.00000095367432 0.6133108139038086 10.10047149658203 1.065911293029785 9.436660766601562 L 6.673770904541016 1.211801528930664 C 6.872256278991699 0.9206914901733398 7.186128616333008 0.7751359939575195 7.500000953674316 0.7751359939575195 Z" stroke="none" fill="#444"/>
  </g>
</svg>
