<svg xmlns="http://www.w3.org/2000/svg" width="99.863" height="100.12" viewBox="0 0 99.863 100.12">
  <g id="settings_-_alt2" data-name="settings - alt2" transform="translate(-1.008 511.594)">
    <path id="Path_339" data-name="Path 339" d="M264.744-511.4a23.978,23.978,0,0,0-17.587,12.436,25,25,0,0,0-2.389,6.953,26.781,26.781,0,0,0,.685,11.1l.392,1.253-3.682,3.682-3.663,3.662,4.328,4.328,4.328,4.329,1.312-.411a8.2,8.2,0,0,1,7.834,1.508l.568.451,1.7-1.685,1.7-1.7,1.253.392a25.4,25.4,0,0,0,11.007.548A23.871,23.871,0,0,0,291.3-482.57a29.228,29.228,0,0,0,.411-8.343c-.176-1.254-.294-1.547-.823-2.018a2.216,2.216,0,0,0-2.409-.313,50.1,50.1,0,0,0-3.682,3.427c-2.82,2.781-3.447,3.29-4.7,3.878a10.489,10.489,0,0,1-14.669-6.717,13.692,13.692,0,0,1,.1-5.425c.646-2.292,1.39-3.31,4.9-6.914,3.251-3.329,3.329-3.408,3.329-4.23a2,2,0,0,0-1.43-2C271.4-511.615,266.683-511.732,264.744-511.4Z" transform="translate(-190.979 0)" fill="silver"/>
    <path id="Path_340" data-name="Path 340" d="M9.049-480.2c-1.058.372-6.855,6.11-7.4,7.325A2.938,2.938,0,0,0,1.861-470c1,1.684,10.223,13.925,10.752,14.218a4.134,4.134,0,0,0,2.84.177,7.739,7.739,0,0,0,1.528-1.176l1.058-.979,16.1,16.079,16.1,16.1-1.253,1.332a5.179,5.179,0,0,0-1.469,2.154c-.49,1.8-1.253.94,16.021,18.214,16.608,16.589,16.354,16.373,18.821,17.117a10.734,10.734,0,0,0,7.462-.646,12.948,12.948,0,0,0,4.348-4.27,10.781,10.781,0,0,0,.823-7.226c-.725-2.781-.313-2.331-17-19.076-10.458-10.478-15.746-15.648-16.295-15.9-1.488-.725-2.6-.411-4.348,1.253l-1.136,1.077-16.1-16.1L23.992-463.769l.627-.568c2.135-2,2.331-4.328.47-5.817-1.175-.94-13.142-9.694-13.514-9.89A3.415,3.415,0,0,0,9.049-480.2Z" transform="translate(-0.287 -25.107)" fill="silver"/>
    <path id="Path_341" data-name="Path 341" d="M18.5-227.293C4.649-213.407,2.73-211.429,2.2-210.352a10.112,10.112,0,0,0,3.525,13.376A9.481,9.481,0,0,0,11-195.526a9.3,9.3,0,0,0,4.8-1.116c1.018-.49,2.977-2.35,14.865-14.238l13.69-13.671-.49-.607a9.225,9.225,0,0,1-1.763-3.917,8.609,8.609,0,0,1,.548-4.564l.313-.607-4.387-4.387L34.2-243Z" transform="translate(0 -215.989)" fill="silver"/>
  </g>
</svg>
